<svg xmlns="http://www.w3.org/2000/svg" viewBox="0 0 512 512">
  <path fill="#1572B6" d="M71.357 460.819L30.272 0h451.456l-41.129 460.746L255.724 512z"/>
  <path fill="#33A9DC" d="M256 472.296l158.098-43.802 37.209-417.023H256z"/>
  <path fill="#EBEBEB" d="M256 208.962H116.886l-2.822-31.677h141.936v-30.897H78.533l.744 8.353 7.611 85.373H256zm0 150.684l-.234.066-59.597-16.095-3.812-42.741H161.48l7.501 84.047 109.547 30.397.234-.065z"/>
  <path fill="#FFF" d="M255.83 208.962v30.897h125.05l-1.174 13.166-11.836 132.537-112.04 31.087v-32.155l59.597-16.095 8.816-98.785H255.83z"/>
  <path fill="#FFF" d="M255.83 145.788v30.897h162.165l1.343-15.071 3.048-34.203.744-8.353z"/>
</svg>
