<svg xmlns="http://www.w3.org/2000/svg" viewBox="0 0 256 252">
  <path fill="#00758F" d="M235.648 194.212c-13.918-.347-24.705 1.045-33.752 4.872-2.61 1.043-6.786 1.044-7.134 4.35 1.392 1.392 1.566 3.654 2.784 5.567 2.09 3.479 5.741 8.177 9.047 10.614 3.653 2.783 7.308 5.566 11.134 8.002 6.786 4.176 14.442 6.611 21.053 10.787 3.829 2.434 7.654 5.568 11.482 8.177 1.914 1.39 3.131 3.654 5.568 4.523v-.521c-1.219-1.567-1.567-3.828-2.784-5.568-1.738-1.74-3.48-3.306-5.221-5.046-5.048-6.784-11.308-12.7-18.093-17.573-5.396-3.654-17.401-8.524-19.66-14.442-.175-.175-.348-.347-.348-.347 3.827-.348 8.348-1.567 12.006-2.436 5.915-1.567 11.134-1.218 17.225-2.784 2.784-.696 5.568-1.567 8.35-2.436v-1.565c-3.13-3.132-5.392-7.307-8.698-10.265-8.873-7.657-18.617-15.137-28.707-21.4-5.394-3.48-12.354-5.742-18.095-8.699-2.086-1.045-5.567-1.566-6.784-3.306-3.133-3.827-4.873-8.872-7.134-13.396-5.044-9.57-9.917-20.182-14.267-30.272-3.13-7.133-5.392-14.093-9.394-20.529-18.095-29.577-37.406-47.497-67.33-65.07-6.438-3.653-14.093-5.219-22.27-7.132-4.348-.175-8.699-.522-13.048-.697-2.784-1.218-5.568-4.523-8.004-6.089C34.006 4.573 13.953-4.043 1.08 8.05c-8.001 7.654-2.958 22.792 2.436 28.707 4.003 4.351 9.221 9.569 12.005 14.617 1.915 3.48 2.263 6.963 3.652 10.787 2.088 6.613 3.479 13.75 6.437 19.838 1.565 3.306 3.306 6.787 5.219 9.917 1.216 1.913 3.306 2.784 3.828 5.568-2.263 3.132-2.436 7.83-3.654 11.83-5.568 18.617-3.48 41.752 4.872 55.5 2.609 4.177 8.699 13.049 17.048 9.571 7.306-3.131 5.741-12.7 7.829-21.224 0-.523.173-.697.347-1.044v.173c1.567 3.131 3.132 6.085 4.525 9.217 6.784 11.308 18.791 23.139 28.88 31.141 5.394 4.177 9.743 11.483 16.527 14.093v-.174h-.347c-1.218-1.914-3.132-2.784-4.698-4.524-3.654-3.652-7.133-8.004-10.093-12.006-8.522-11.133-16.004-23.313-22.617-36.188-3.306-6.436-6.089-13.571-8.699-20.182-1.045-2.784-1.045-6.959-3.306-8.699-2.959 4.698-7.479 8.524-9.917 14.269-3.829 9.045-4.351 20.182-5.742 32.186-.696.176-.349 0-.697.174-5.226-1.218-7.133-6.612-9.047-11.307-4.698-12.006-5.568-31.315-.696-45.086 1.218-3.48 6.612-14.443 4.35-17.75-1.045-3.306-4.351-5.221-6.438-7.829-2.609-3.48-5.221-7.829-6.959-11.483-4.528-9.744-6.612-20.53-11.308-30.273-2.262-4.872-6.09-9.744-9.57-14.093-3.653-4.698-7.657-8.004-10.266-13.923-1.045-2.262-2.088-5.917-.696-8.177.348-1.392 1.043-1.913 2.436-2.262 2.262-1.915 8.525.521 10.787 1.567 6.438 2.608 11.831 5.221 17.051 9.047 2.434 1.914 5.045 5.568 8.176 6.786h3.654c5.568 1.217 11.83.348 17.048 1.913 9.219 2.957 17.401 7.48 24.534 12.354 21.746 14.792 39.496 35.844 51.672 60.898 1.913 4.001 2.784 7.829 4.524 12.006 3.305 8.176 7.481 16.528 10.787 24.534 3.652 8.001 7.306 16.179 12.354 22.79 2.783 3.653 13.922 5.568 18.97 7.48 3.654 1.566 9.571 3.131 13.05 5.046 6.611 3.479 13.045 7.482 19.312 11.307 3.132 1.913 12.702 6.09 13.396 10.438z"/>
  <path fill="#E48E00" d="M52.673 67.063c-3.479-.522-5.914-.174-8.699.173v.35h.349c1.565 3.48 4.349 5.742 6.437 8.698 1.565 2.784 3.132 5.568 4.698 8.352.173-.175.347-.347.347-.347 2.783-1.914 4.177-5.045 4.177-9.568-1.218-1.218-1.39-2.784-2.262-4.35-1.218-1.913-3.827-3.132-4.873-5.394l-.174.086z"/>
</svg>
