<svg xmlns="http://www.w3.org/2000/svg" viewBox="0 0 256 289" fill="currentColor">
  <path fill="#539E43" d="M128 288.464c-3.975 0-7.685-1.06-11.246-2.729l-35.754-21.143c-5.345-2.729-2.729-3.703-1.06-4.265 7.685-2.729 9.355-3.348 17.684-8.058.916-.531 2.05-.332 2.965.332l27.464 16.303c1.06.531 2.513.531 3.439 0l107.101-61.815c1.06-.531 1.726-1.726 1.726-2.92V83.265c0-1.195-.666-2.39-1.726-2.92L130.64 18.263c-1.06-.531-2.513-.531-3.439 0L19.932 80.28c-1.06.531-1.727 1.726-1.727 2.92v123.532c0 1.195.667 2.39 1.727 2.92l29.32 16.97c15.884 7.952 25.638-1.394 25.638-10.722V92.946c0-1.726 1.394-3.12 3.12-3.12h13.635c1.726 0 3.12 1.394 3.12 3.12v122.806c0 21.41-11.645 33.721-31.888 33.721-6.226 0-11.117 0-24.752-6.719l-28.096-16.17c-6.952-4.001-11.246-11.512-11.246-19.53V83.198c0-8.017 4.294-15.528 11.246-19.53L107.276 2.787c6.719-3.787 15.639-3.787 22.425 0l107.101 61.815c6.952 4.001 11.246 11.512 11.246 19.53v123.532c0 8.017-4.294 15.528-11.246 19.53l-107.101 61.815c-3.561 1.86-7.337 2.729-11.246 2.729zm33.054-85.805c-47.012 0-56.832-21.609-56.832-39.76 0-1.727 1.394-3.12 3.12-3.12h13.9c1.56 0 2.854 1.128 3.054 2.652 2.08 14.024 8.279 21.076 36.758 21.076 22.591 0 32.212-5.113 32.212-17.158 0-6.919-2.652-12.033-37.88-15.494-29.387-2.92-47.605-9.355-47.605-32.744 0-21.543 18.151-34.387 48.538-34.387 34.12 0 50.97 11.845 53.099 37.349.133.865-.2 1.727-.732 2.391-.531.664-1.327 1.06-2.125 1.06h-13.967c-1.46 0-2.72-1.06-3.054-2.453-3.373-15.228-11.645-20.076-33.187-20.076-24.419 0-27.271 8.544-27.271 14.957 0 7.818 3.372 10.09 36.692 14.49 33.054 4.334 48.793 10.505 48.793 33.587.067 23.271-19.397 36.626-53.25 36.626z"/>
</svg>
