<svg xmlns="http://www.w3.org/2000/svg" viewBox="0 0 432.071 445.383">
  <g>
    <path fill="#336791" d="M323.205,324.227c2.833-23.601,1.984-27.062,19.563-23.239l4.463,0.392c13.517,0.615,31.199-2.174,41.587-7.056
      c13.018-6.127,21.117-16.624,23.572-30.138c-12.559-11.152-30.997-12.681-44.513-13.295c-13.514-0.616-27.027-1.231-40.541-1.846
      c-8.465-0.386-14.232-5.771-15.939-14.232c-3.295-16.367,7.456-32.026,23.239-33.733c7.056-0.769,14.112-1.538,21.168-2.307
      c27.027-2.923,54.055-5.846,81.082-8.769c0.923,5.539,1.846,11.076,2.769,16.615c-36.956,8.308-73.912,16.615-110.867,24.923
      c-5.077,1.077-10.154,1.231-15.231,0.461c-4.154-0.615-8.308-1.231-12.462-1.846c4.617-2.769,9.234-5.539,13.85-8.308
      c17.324-10.154,34.647-20.308,51.971-30.461c6.127-3.693,12.254-7.387,18.381-11.076c4.616-2.769,9.233-5.539,13.85-8.308
      c-5.077-5.539-10.154-11.076-15.231-16.615c-25.181,6.127-50.363,12.254-75.544,18.381c-13.517,3.294-27.027,6.588-40.541,9.882
      c-7.056,1.692-14.112,3.385-21.168,5.077c-4.617,1.077-9.234,2.154-13.85,3.231c2.769-5.539,5.539-11.076,8.308-16.615
      c8.308-16.615,16.615-33.231,24.923-49.846c5.539-11.076,11.076-22.154,16.615-33.231c2.769-5.539,5.539-11.076,8.308-16.615
      c-5.077-2.769-10.154-5.539-15.231-8.308c-17.324,21.168-34.647,42.335-51.971,63.503c-9.233,11.076-18.467,22.154-27.7,33.231
      c-5.539,6.588-11.076,13.176-16.615,19.764c-2.769,3.385-5.539,6.769-8.308,10.154c5.077,0,10.154,0,15.231,0
      c33.231,0,66.462,0,99.693,0c5.077,0,10.154,0,15.231,0c-2.769,5.539-5.539,11.076-8.308,16.615
      c-8.308,16.615-16.615,33.231-24.923,49.846c-5.539,11.076-11.076,22.154-16.615,33.231c-2.769,5.539-5.539,11.076-8.308,16.615
      c5.077,2.769,10.154,5.539,15.231,8.308c17.324-21.168,34.647-42.335,51.971-63.503c9.234-11.076,18.467-22.154,27.7-33.231
      C317.666,330.354,320.436,327.596,323.205,324.227z"/>
    <path fill="#336791" d="M402.395,271.23c-50.302,191.154-147.438,56.363-147.438,56.363c5.539,15.231,11.076,30.461,16.615,45.692
      c36.956-20.308,73.912-40.616,110.867-60.924C399.369,300.307,400.932,285.461,402.395,271.23z"/>
  </g>
</svg>
