<svg xmlns="http://www.w3.org/2000/svg" viewBox="0 0 256 256">
  <defs>
    <linearGradient id="scrumGradient" x1="0%" y1="0%" x2="100%" y2="100%">
      <stop offset="0%" style="stop-color:#667eea;stop-opacity:1" />
      <stop offset="100%" style="stop-color:#764ba2;stop-opacity:1" />
    </linearGradient>
  </defs>
  <rect width="256" height="256" rx="50" fill="url(#scrumGradient)"/>
  <g transform="translate(40, 40)">
    <rect x="10" y="10" width="40" height="40" rx="5" fill="#fff" opacity="0.9"/>
    <rect x="65" y="10" width="40" height="40" rx="5" fill="#fff" opacity="0.9"/>
    <rect x="120" y="10" width="40" height="40" rx="5" fill="#fff" opacity="0.9"/>
    
    <rect x="10" y="65" width="40" height="40" rx="5" fill="#fff" opacity="0.9"/>
    <rect x="65" y="65" width="40" height="40" rx="5" fill="#fff" opacity="0.9"/>
    <rect x="120" y="65" width="40" height="40" rx="5" fill="#fff" opacity="0.9"/>
    
    <rect x="10" y="120" width="40" height="40" rx="5" fill="#fff"/>
    <rect x="65" y="120" width="40" height="40" rx="5" fill="#fff"/>
    <rect x="120" y="120" width="40" height="40" rx="5" fill="#fff"/>
    
    <circle cx="30" cy="30" r="8" fill="url(#scrumGradient)"/>
    <circle cx="85" cy="30" r="8" fill="url(#scrumGradient)"/>
    <circle cx="140" cy="30" r="8" fill="url(#scrumGradient)"/>
    
    <circle cx="30" cy="85" r="8" fill="url(#scrumGradient)"/>
    <circle cx="85" cy="85" r="8" fill="url(#scrumGradient)"/>
    <circle cx="140" cy="85" r="8" fill="url(#scrumGradient)"/>
    
    <path d="M 20 140 L 30 130 L 40 140" stroke="url(#scrumGradient)" stroke-width="3" fill="none" stroke-linecap="round"/>
    <path d="M 75 140 L 85 130 L 95 140" stroke="url(#scrumGradient)" stroke-width="3" fill="none" stroke-linecap="round"/>
    <path d="M 130 140 L 140 130 L 150 140" stroke="url(#scrumGradient)" stroke-width="3" fill="none" stroke-linecap="round"/>
  </g>
</svg>
