<svg xmlns="http://www.w3.org/2000/svg" viewBox="0 0 256 256">
  <path fill="#6DB33F" d="M226.468 28.479c-6.704 11.808-15.424 22.432-25.89 31.616 11.456 50.944-11.52 103.744-57.856 132.736-48.416 30.272-111.808 24.448-154.496-14.144 27.136 53.44 96 78.08 152.256 54.592 56.32-23.52 82.88-90.752 59.168-149.952 3.328-17.472 3.2-35.264-1.088-52.48 8.896-5.184 17.664-10.688 27.904-2.368z"/>
  <path fill="#6DB33F" d="M179.808 164.416c-36.096 0-65.728-29.568-65.728-65.728 0-8.416 1.6-16.416 4.48-23.808-3.968.512-7.936 1.28-11.84 2.304-32.64 8.64-52.672 41.6-44.8 73.536 7.872 31.936 40.512 51.968 72.448 44.8 26.496-5.952 45.504-28.16 47.936-53.952-2.816.768-5.696 1.408-8.64 1.856 1.92 8.576-.768 17.6-7.168 24.32-6.4 6.72-15.488 9.92-24.128 8.512l36.608-11.84z"/>
</svg>
